<?xml version="1.0" standalone="no"?>
<!DOCTYPE svg PUBLIC "-//W3C//DTD SVG 20010904//EN"
 "http://www.w3.org/TR/2001/REC-SVG-20010904/DTD/svg10.dtd">
<svg version="1.0" xmlns="http://www.w3.org/2000/svg"
 width="512.000000pt" height="512.000000pt" viewBox="0 0 512.000000 512.000000"
 preserveAspectRatio="xMidYMid meet">
<metadata>
Created by potrace 1.11, written by Peter Selinger 2001-2013
</metadata>
<g transform="translate(0.000000,512.000000) scale(0.100000,-0.100000)"
fill="#000000" stroke="none">
<path d="M3100 4783 c-419 -105 -857 -341 -1174 -633 -296 -273 -575 -720
-680 -1091 -44 -151 -54 -247 -52 -474 2 -121 5 -229 8 -240 3 -11 9 -42 12
-70 16 -120 68 -277 151 -460 169 -369 201 -434 283 -560 157 -243 400 -472
717 -678 200 -129 347 -188 575 -232 117 -23 360 -23 486 -1 316 56 437 190
488 541 14 93 15 249 2 304 -27 116 -67 208 -144 324 -49 75 -72 130 -67 162
2 11 6 43 10 70 3 28 22 108 41 180 20 71 37 136 39 145 2 8 8 35 15 60 30
110 13 268 -38 365 -15 28 -30 52 -33 55 -4 3 -24 39 -45 80 -49 97 -49 139 0
335 67 269 75 313 72 420 -4 120 -17 159 -93 273 -43 65 -60 101 -68 146 -13
67 -11 181 4 246 5 23 8 96 7 163 -2 107 -6 129 -29 177 -57 123 -195 286
-300 355 -69 45 -117 55 -187 38z"/>
</g>
</svg>
